<mxfile host="app.diagrams.net" modified="2024-09-14T00:52:55.701Z" agent="Mozilla/5.0 (Windows NT 10.0; Win64; x64) AppleWebKit/537.36 (KHTML, like Gecko) Chrome/122.0.0.0 Safari/537.36" etag="O_NKYfAM-X91LJhWmSmI" version="22.1.17" type="device">
  <diagram name="PÃ¡gina-1" id="hZttYhd8SdxmW8RzCqOH">
    <mxGraphModel dx="910" dy="459" grid="1" gridSize="10" guides="1" tooltips="1" connect="1" arrows="1" fold="1" page="1" pageScale="1" pageWidth="827" pageHeight="1169" math="0" shadow="0">
      <root>
        <mxCell id="0" />
        <mxCell id="1" parent="0" />
        <mxCell id="FnllOQYHcr4qxD75AXps-10" style="edgeStyle=orthogonalEdgeStyle;rounded=0;orthogonalLoop=1;jettySize=auto;html=1;exitX=1;exitY=0.5;exitDx=0;exitDy=0;exitPerimeter=0;" edge="1" parent="1" source="FnllOQYHcr4qxD75AXps-1" target="FnllOQYHcr4qxD75AXps-9">
          <mxGeometry relative="1" as="geometry" />
        </mxCell>
        <mxCell id="FnllOQYHcr4qxD75AXps-1" value="SQLite" style="shape=cylinder3;whiteSpace=wrap;html=1;boundedLbl=1;backgroundOutline=1;size=15;fillColor=#dae8fc;strokeColor=#6c8ebf;" vertex="1" parent="1">
          <mxGeometry x="40" y="100" width="120" height="120" as="geometry" />
        </mxCell>
        <mxCell id="FnllOQYHcr4qxD75AXps-2" value="&lt;code&gt;APICALL&lt;/code&gt; y &lt;code&gt;COMMERCE&lt;/code&gt;" style="text;html=1;strokeColor=none;fillColor=none;align=center;verticalAlign=middle;whiteSpace=wrap;rounded=0;" vertex="1" parent="1">
          <mxGeometry x="40" y="220" width="120" height="30" as="geometry" />
        </mxCell>
        <mxCell id="FnllOQYHcr4qxD75AXps-17" style="edgeStyle=orthogonalEdgeStyle;rounded=0;orthogonalLoop=1;jettySize=auto;html=1;exitX=1;exitY=0.5;exitDx=0;exitDy=0;" edge="1" parent="1" source="FnllOQYHcr4qxD75AXps-3" target="FnllOQYHcr4qxD75AXps-12">
          <mxGeometry relative="1" as="geometry" />
        </mxCell>
        <mxCell id="FnllOQYHcr4qxD75AXps-3" value="" style="rounded=0;whiteSpace=wrap;html=1;fillColor=#d5e8d4;strokeColor=#82b366;" vertex="1" parent="1">
          <mxGeometry x="230" y="90" width="240" height="150" as="geometry" />
        </mxCell>
        <mxCell id="FnllOQYHcr4qxD75AXps-6" value="PROCESAMIENTO EN PYTHON" style="text;html=1;strokeColor=none;fillColor=none;align=center;verticalAlign=middle;whiteSpace=wrap;rounded=0;" vertex="1" parent="1">
          <mxGeometry x="247.5" y="60" width="205" height="30" as="geometry" />
        </mxCell>
        <mxCell id="FnllOQYHcr4qxD75AXps-16" style="edgeStyle=orthogonalEdgeStyle;rounded=0;orthogonalLoop=1;jettySize=auto;html=1;exitX=1;exitY=0.5;exitDx=0;exitDy=0;entryX=0;entryY=0.5;entryDx=0;entryDy=0;" edge="1" parent="1" source="FnllOQYHcr4qxD75AXps-9" target="FnllOQYHcr4qxD75AXps-11">
          <mxGeometry relative="1" as="geometry" />
        </mxCell>
        <mxCell id="FnllOQYHcr4qxD75AXps-9" value="Extraccion de datos" style="rounded=1;whiteSpace=wrap;html=1;" vertex="1" parent="1">
          <mxGeometry x="242.5" y="130" width="90" height="60" as="geometry" />
        </mxCell>
        <mxCell id="FnllOQYHcr4qxD75AXps-11" value="Reglas de negocio" style="rounded=1;whiteSpace=wrap;html=1;" vertex="1" parent="1">
          <mxGeometry x="360" y="130" width="90" height="60" as="geometry" />
        </mxCell>
        <mxCell id="FnllOQYHcr4qxD75AXps-12" value="" style="html=1;verticalLabelPosition=bottom;align=center;labelBackgroundColor=#ffffff;verticalAlign=top;strokeWidth=2;strokeColor=#0080F0;shadow=0;dashed=0;shape=mxgraph.ios7.icons.mail;" vertex="1" parent="1">
          <mxGeometry x="540" y="132.72" width="100" height="64.56" as="geometry" />
        </mxCell>
        <mxCell id="FnllOQYHcr4qxD75AXps-18" value="NOTIFIACION OUTLOOK" style="text;html=1;strokeColor=none;fillColor=none;align=center;verticalAlign=middle;whiteSpace=wrap;rounded=0;" vertex="1" parent="1">
          <mxGeometry x="526.88" y="200" width="126.25" height="30" as="geometry" />
        </mxCell>
      </root>
    </mxGraphModel>
  </diagram>
</mxfile>
